<svg width="64" height="66" viewBox="0 0 64 66" fill="none" xmlns="http://www.w3.org/2000/svg">
<path d="M49.7348 43.3674C46.8087 48.3349 41.7552 52.2964 36.1724 54.2689C30.591 56.2409 24.5958 56.1894 19.7239 53.3196C14.852 50.4498 11.9005 45.2311 10.9194 39.3935C9.93812 33.5544 10.9531 27.2139 13.8792 22.2465C16.8053 17.279 21.8588 13.3175 27.4416 11.345C33.023 9.37298 39.0182 9.42444 43.8901 12.2943C48.762 15.1641 51.7135 20.3827 52.6945 26.2204C53.6758 32.0595 52.6609 38.4 49.7348 43.3674Z" stroke="#331B3B" stroke-opacity="0.64" stroke-width="2"/>
<g clip-path="url(#clip0_2013_3)">
<path fill-rule="evenodd" clip-rule="evenodd" d="M41.2567 41.8071H37.5582V35.5079C37.5582 33.7808 36.902 32.8156 35.535 32.8156C34.0479 32.8156 33.2709 33.82 33.2709 35.5079V41.8071H29.7067V29.8071H33.2709V31.4235C33.2709 31.4235 34.3426 29.4405 36.8891 29.4405C39.4344 29.4405 41.2567 30.9948 41.2567 34.2095V41.8071ZM25.4545 28.2358C24.2404 28.2358 23.2567 27.2443 23.2567 26.0215C23.2567 24.7986 24.2404 23.8071 25.4545 23.8071C26.6686 23.8071 27.6518 24.7986 27.6518 26.0215C27.6518 27.2443 26.6686 28.2358 25.4545 28.2358ZM23.6141 41.8071H27.3307V29.8071H23.6141V41.8071Z" fill="#331B3B"/>
</g>
<defs>
<clipPath id="clip0_2013_3">
<rect width="18" height="18" fill="white" transform="translate(23.2567 23.8071)"/>
</clipPath>
</defs>
</svg>
